#N canvas 87 98 1585 819 12;
#X floatatom 78 698 7 0 0 0 - location-set -, f 7;
#N canvas 66 131 821 693 fft-analysis 0;
#X obj 51 477 *~;
#X obj 18 477 *~;
#X obj 18 499 -~;
#X obj 167 475 *~;
#X obj 136 475 *~;
#X obj 136 497 +~;
#X obj 109 193 *~;
#X obj 78 193 *~;
#X obj 50 193 *~;
#X obj 19 193 *~;
#X obj 19 218 +~;
#X obj 127 379 *~;
#X obj 20 622 *~;
#X obj 238 430 rfft~;
#X obj 108 161 rfft~;
#X obj 19 564 rifft~;
#X obj 21 646 outlet~;
#X obj 97 379 *~;
#X obj 97 401 +~;
#X obj 124 218 -~;
#X obj 18 431 *~;
#X obj 51 432 *~;
#X obj 127 622 r window-size;
#X obj 426 595 r window-size;
#X obj 426 644 block~;
#X obj 19 349 +~ 1e-15;
#X obj 19 598 *~;
#X obj 52 598 tabreceive~ \$0-hann;
#X obj 127 643 expr 2/(3*$f1);
#X obj 591 563 loadbang;
#X msg 591 589 \; pd dsp 1 \; window-size 2048 \; transpo 0 \; rewind
bang;
#X msg 426 619 set \$1 4;
#X obj 97 425 q8_rsqrt~;
#N canvas 998 100 1006 799 read-windows 0;
#X obj 18 693 *~;
#X obj 340 448 r window-size;
#X obj 166 303 f;
#X obj 102 91 r window-size;
#X obj 102 139 /;
#X obj 195 695 *~;
#X obj 166 252 bang~;
#X obj 17 551 line~;
#X obj 102 164 * 1000;
#X obj 288 222 r speed;
#X obj 187 276 r location;
#X obj 208 305 +;
#X obj 288 275 *;
#X obj 188 371 / 1000;
#X obj 166 394 *;
#X text 198 394 reading location (samples);
#X obj 51 597 / 4;
#X obj 288 245 * 0.01;
#X floatatom 340 498 7 0 0 0 - - -, f 7;
#X obj 340 474 *;
#X obj 499 365 r transpo;
#X obj 499 387 * 0.01;
#X obj 501 408 + 69;
#X obj 502 429 mtof;
#X obj 502 451 / 440;
#X obj 375 474 t b f;
#X obj 19 719 outlet~;
#X obj 195 720 outlet~;
#X obj 218 664 tabreceive~ \$0-hann;
#X obj 803 386 r location;
#X msg 803 409 0;
#X obj 803 432 s speed;
#X obj 768 508 r speed;
#X msg 768 532 set \$1;
#X obj 768 557 s speed-set;
#X text 411 498 stretched window size (samples);
#X obj 877 507 r transpo;
#X msg 877 533 set \$1;
#X obj 877 558 s transpo-set;
#X obj 808 94 r location;
#X msg 826 278 set \$1;
#X obj 808 140 t b f;
#X obj 826 257 f;
#X obj 754 171 int;
#X obj 754 203 sel 0;
#X msg 813 174 1;
#X msg 813 197 0;
#X obj 754 228 del 300;
#X obj 826 302 s location-set;
#X obj 17 637 tabread4~ \$0-sample;
#X obj 194 637 tabread4~ \$0-sample;
#X obj 188 347 r \$0-insamprate;
#X obj 528 586 r rewind;
#X msg 528 744 \; location \$1;
#X floatatom 111 187 5 0 0 0 - - -, f 5;
#X obj 102 115 t f b;
#X obj 142 139 samplerate~;
#X obj 102 208 / 4;
#X obj 243 309 s see-loc;
#X obj 817 116 r see-loc;
#X obj 203 420 / 2;
#X obj 166 420 -;
#X text 239 417 back up 1/2 window;
#X obj 16 597 -~;
#X text 43 6 Read two windows out of the recorded sample \, one 1/4
ahead of the other. The mid point of the front window is specified
by "location". If "speed" is nonzero \, "location" automatically precesses.
;
#X obj 528 720 * -0.5;
#X text 81 601 "back" window 1/4 cycle behind "front" one;
#X text 137 205 computation period (msec) for overlap of 4;
#X text 164 186 msec in a window;
#X obj 528 666 /;
#X obj 528 691 * 1000;
#X obj 528 642 t f b;
#X obj 568 666 samplerate~;
#X obj 528 619 f;
#X msg 845 711 \; rewind bang \; speed \$1;
#X obj 845 684 r auto;
#X obj 730 685 r no-detune;
#X text 326 275 loop to precess the location according;
#X text 325 291 to the "speed" parameter.;
#X text 611 31 if location changes \, update number box;
#X text 610 50 in main window via "location-set" \, but;
#X text 613 69 taking care to limit frequency of updates.;
#X text 756 462 reflect control changes;
#X text 756 479 in main window.;
#X text 754 344 setting location by hand;
#X text 752 362 sets speed to zero.;
#X text 760 653 misc controls;
#X text 496 527 "rewind" control takes us;
#X text 499 545 to a location depending on;
#X text 499 564 stretched window size.;
#X obj 16 469 f;
#X obj 17 496 pack;
#X obj 15 440 b;
#X msg 17 523 0 \, \$1 \$2;
#X msg 730 707 \; transpo 0;
#X floatatom 92 556 5 0 0 0 - - -, f 5;
#X connect 0 0 26 0;
#X connect 1 0 19 0;
#X connect 2 0 11 0;
#X connect 2 0 14 0;
#X connect 3 0 55 0;
#X connect 4 0 8 0;
#X connect 5 0 27 0;
#X connect 6 0 2 0;
#X connect 7 0 63 0;
#X connect 7 0 50 0;
#X connect 8 0 54 0;
#X connect 8 0 57 0;
#X connect 9 0 17 0;
#X connect 10 0 2 1;
#X connect 11 0 2 1;
#X connect 11 0 58 0;
#X connect 12 0 11 1;
#X connect 13 0 14 1;
#X connect 14 0 61 0;
#X connect 16 0 63 1;
#X connect 17 0 12 0;
#X connect 18 0 16 0;
#X connect 18 0 60 0;
#X connect 18 0 73 1;
#X connect 18 0 90 1;
#X connect 19 0 18 0;
#X connect 20 0 21 0;
#X connect 21 0 22 0;
#X connect 22 0 23 0;
#X connect 23 0 24 0;
#X connect 24 0 25 0;
#X connect 25 0 19 0;
#X connect 25 1 19 1;
#X connect 28 0 5 1;
#X connect 28 0 0 1;
#X connect 29 0 30 0;
#X connect 30 0 31 0;
#X connect 32 0 33 0;
#X connect 33 0 34 0;
#X connect 36 0 37 0;
#X connect 37 0 38 0;
#X connect 39 0 41 0;
#X connect 40 0 48 0;
#X connect 41 0 43 0;
#X connect 41 1 42 1;
#X connect 42 0 40 0;
#X connect 43 0 44 0;
#X connect 44 0 45 0;
#X connect 44 0 47 0;
#X connect 45 0 43 1;
#X connect 46 0 43 1;
#X connect 47 0 46 0;
#X connect 47 0 42 0;
#X connect 49 0 0 0;
#X connect 50 0 5 0;
#X connect 51 0 13 0;
#X connect 52 0 73 0;
#X connect 55 0 4 0;
#X connect 55 1 56 0;
#X connect 56 0 4 1;
#X connect 57 0 12 1;
#X connect 57 0 91 1;
#X connect 59 0 41 0;
#X connect 60 0 61 1;
#X connect 61 0 92 0;
#X connect 61 0 49 1;
#X connect 61 0 50 1;
#X connect 63 0 49 0;
#X connect 65 0 53 0;
#X connect 69 0 70 0;
#X connect 70 0 65 0;
#X connect 71 0 69 0;
#X connect 71 1 72 0;
#X connect 72 0 69 1;
#X connect 73 0 71 0;
#X connect 75 0 74 0;
#X connect 76 0 94 0;
#X connect 90 0 91 0;
#X connect 91 0 93 0;
#X connect 92 0 90 0;
#X connect 93 0 7 0;
#X connect 93 0 95 0;
#X restore 109 133 pd read-windows;
#X obj 137 543 tabsend~ prev-imag;
#X obj 136 567 tabsend~ prev-real;
#X obj 20 8 tabreceive~ prev-real;
#X obj 73 29 tabreceive~ prev-imag;
#X text 272 5 recall previous output amplitude. Its phase will be added
to the phase difference we measure from two windows in the the recorded
sound.;
#X obj 121 69 *~;
#X obj 89 69 *~;
#X obj 89 91 +~;
#X obj 159 94 q8_rsqrt~;
#X obj 159 71 +~ 1e-20;
#X obj 73 119 *~;
#X obj 19 118 *~;
#X obj 181 290 r lock;
#X obj 29 245 lrshift~ 1;
#X obj 24 269 lrshift~ -1;
#X obj 141 245 lrshift~ 1;
#X obj 133 269 lrshift~ -1;
#X obj 35 300 *~;
#X obj 159 312 *~;
#X obj 19 325 +~;
#X obj 125 331 +~;
#X text 247 66 divide by the magnitude to make a unit-magnitude complex
amplitude (phase only). The 1e-20 is to prevent overflows. q8_rsqrt~
is reciprocal square root.;
#X text 247 165 Take FT of the window in back. Multiply its conjugate
by the normalized previous output. The result has the magnitude of
the input sound and phase (previous output phase) minus (back window
phase).;
#X text 249 370 Normalize again \, this time taking care to salt each
channel with 1e-15 so that we get a unit complex number even if everything
was zero heretofore.;
#X text 288 427 Now take the FT of the forward window and multiply
it by the unit complex number from above. The magnitude will be that
of the forward window and the phase will be the previous output phase
plus the phase difference between the two analysis windows -- except
that if "lock" is on \, they will be modified to agree progressively
better with the inter-channel phase relationships of the input.;
#X text 249 242 If "lock" is on \, encourage neighboring channels to
stay in phase by adding the two neighboring complex amplitudes. The
result will tend toward the channel with the strongest amplitude. If
the phase relationships between channels in the output and those in
the input are in parallel \, then neighboring channels of the quotient
will all have the same phase and this will not change any phases. (lrshift
shifts the signal to the left or right depending on its argument.)
;
#X text 387 560 'set' message to block;
#X text 390 577 allows variable size;
#X text 259 126 Read two windows \, one 1/4 length behind the other
\, of the input sound \, with Hann window function (see inside).;
#X connect 0 0 2 1;
#X connect 1 0 2 0;
#X connect 2 0 35 0;
#X connect 2 0 15 0;
#X connect 3 0 5 1;
#X connect 4 0 5 0;
#X connect 5 0 34 0;
#X connect 5 0 15 1;
#X connect 6 0 19 1;
#X connect 7 0 19 0;
#X connect 8 0 10 1;
#X connect 9 0 10 0;
#X connect 10 0 48 0;
#X connect 10 0 47 0;
#X connect 10 0 53 0;
#X connect 11 0 18 1;
#X connect 12 0 16 0;
#X connect 13 0 1 1;
#X connect 13 0 3 1;
#X connect 13 1 0 1;
#X connect 13 1 4 1;
#X connect 14 0 9 1;
#X connect 14 0 7 1;
#X connect 14 1 6 1;
#X connect 14 1 8 1;
#X connect 15 0 26 0;
#X connect 17 0 18 0;
#X connect 18 0 32 0;
#X connect 19 0 49 0;
#X connect 19 0 50 0;
#X connect 19 0 54 0;
#X connect 20 0 1 0;
#X connect 20 0 4 0;
#X connect 21 0 0 0;
#X connect 21 0 3 0;
#X connect 22 0 28 0;
#X connect 23 0 31 0;
#X connect 25 0 17 1;
#X connect 25 0 17 0;
#X connect 25 0 20 0;
#X connect 26 0 12 0;
#X connect 27 0 26 1;
#X connect 28 0 12 1;
#X connect 29 0 30 0;
#X connect 31 0 24 0;
#X connect 32 0 20 1;
#X connect 32 0 21 1;
#X connect 33 0 14 0;
#X connect 33 1 13 0;
#X connect 36 0 40 1;
#X connect 36 0 40 0;
#X connect 36 0 45 0;
#X connect 37 0 39 1;
#X connect 37 0 39 0;
#X connect 37 0 44 0;
#X connect 39 0 41 1;
#X connect 40 0 41 0;
#X connect 41 0 43 0;
#X connect 42 0 44 1;
#X connect 42 0 45 1;
#X connect 43 0 42 0;
#X connect 44 0 8 0;
#X connect 44 0 7 0;
#X connect 45 0 9 0;
#X connect 45 0 6 0;
#X connect 46 0 51 1;
#X connect 46 0 52 1;
#X connect 47 0 51 0;
#X connect 48 0 51 0;
#X connect 49 0 52 0;
#X connect 50 0 52 0;
#X connect 51 0 53 1;
#X connect 52 0 54 1;
#X connect 53 0 25 0;
#X connect 54 0 11 0;
#X connect 54 0 11 1;
#X connect 54 0 21 0;
#X restore 796 261 pd fft-analysis;
#N canvas 256 87 647 768 phase-tables 0;
#N canvas 0 50 450 300 (subpatch) 0;
#X array prev-imag 4096 float 0;
#X coords 0 1000 4096 -1000 400 300 1;
#X restore 169 326 graph;
#N canvas 0 50 450 300 (subpatch) 0;
#X array prev-real 4096 float 0;
#X coords 0 500 4096 -500 400 300 1;
#X restore 170 17 graph;
#X restore 33 247 pd phase-tables;
#N canvas 1 120 565 454 hann-window 0;
#N canvas 0 50 450 300 (subpatch) 0;
#X array \$0-hann 32384 float 0;
#X coords 0 1 32383 0 300 100 1;
#X restore 82 311 graph;
#X obj 378 165 osc~;
#X obj 378 190 *~ -0.5;
#X obj 378 214 +~ 0.5;
#X obj 331 247 tabwrite~ \$0-hann;
#X obj 37 88 r window-size;
#X obj 38 173 /;
#X obj 127 142 samplerate~;
#X obj 38 251 s window-sec;
#X obj 177 204 swap;
#X obj 177 228 /;
#X obj 177 252 s window-hz;
#X obj 49 201 * 1000;
#X obj 49 228 s window-msec;
#X obj 38 115 t f b f;
#X msg 173 92 resize \$1;
#X obj 173 116 s \$0-hann;
#X obj 330 105 r window-hz;
#X msg 382 130 0;
#X obj 330 131 t f b;
#X text 15 8 calculate Hann window table (variable window size) and
constants window-hz (fundamental frequency of analysis) \, window-sec
and window-msec (analysis window size in seconds and msec).;
#X connect 1 0 2 0;
#X connect 2 0 3 0;
#X connect 3 0 4 0;
#X connect 5 0 14 0;
#X connect 6 0 8 0;
#X connect 6 0 12 0;
#X connect 7 0 6 1;
#X connect 7 0 9 1;
#X connect 9 0 10 0;
#X connect 9 1 10 1;
#X connect 10 0 11 0;
#X connect 12 0 13 0;
#X connect 14 0 6 0;
#X connect 14 0 9 0;
#X connect 14 1 7 0;
#X connect 14 2 15 0;
#X connect 15 0 16 0;
#X connect 17 0 19 0;
#X connect 18 0 1 1;
#X connect 19 0 1 0;
#X connect 19 1 4 0;
#X connect 19 1 18 0;
#X restore 34 270 pd hann-window;
#N canvas 1 191 1429 638 insample 0;
#N canvas 0 50 450 300 (subpatch) 0;
#X array \$0-sample 2.9547e+06 float 2;
#X coords 0 1 2.9547e+06 -1 200 140 1 0 0;
#X restore 790 141 graph;
#X obj 21 313 r read-sample;
#X obj 21 364 unpack s f;
#X obj 21 474 soundfiler;
#X obj 21 390 t s b;
#X obj 77 389 symbol \$0-sample;
#X obj 21 425 pack s s;
#X msg 21 450 read -resize \$1 \$2;
#X obj 76 336 44100;
#X obj 21 337 t a b;
#X obj 31 498 s \$0-samplength;
#X obj 118 364 s \$0-insamprate;
#X obj 21 537 /;
#X obj 21 561 * 1000;
#X obj 21 584 s \$0-samp-msec;
#X obj 59 537 r \$0-insamprate;
#X obj 29 70 hip~ 5;
#X obj 29 46 adc~ 1;
#X obj 29 9 inlet;
#X obj 91 46 samplerate~;
#X obj 29 93 tabwrite~ \$0-sample;
#X obj 91 70 s \$0-insamprate;
#X obj 323 3 inlet;
#X obj 276 42 openpanel;
#N canvas 0 50 450 300 (subpatch) 0;
#X array \$0-sample2 2.9547e+06 float 2;
#X coords 0 1 2.9547e+06 -1 200 140 1 0 0;
#X restore 366 145 graph;
#X obj 787 15 inlet;
#X obj 788 50 openpanel;
#X obj 289 358 unpack s f;
#X obj 289 468 soundfiler;
#X obj 289 384 t s b;
#X obj 289 419 pack s s;
#X msg 289 444 read -resize \$1 \$2;
#X obj 344 330 44100;
#X obj 289 331 t a b;
#X obj 386 358 s \$0-insamprate;
#X obj 289 531 /;
#X obj 289 555 * 1000;
#X obj 327 531 r \$0-insamprate;
#X obj 289 307 r read-sample2;
#X obj 345 383 symbol \$0-sample2;
#X obj 299 492 s \$0-samplength2;
#X obj 289 578 s \$0-samp-msec2;
#X obj 903 52 print;
#X obj 788 94 s read-sample;
#X obj 276 108 s read-sample2;
#X obj 895 15 bng 15 250 50 0 empty empty empty 17 7 0 10 -262144 -1
-1;
#X obj 247 16 bng 15 250 50 0 empty empty empty 17 7 0 10 -262144 -1
-1;
#X msg 354 26 /home/warholiano/bagatelles/tech/gametrak/soundfiles/jerezGuitar.wav
;
#X msg 957 46 /home/warholiano/bagatelles/tech/gametrak/soundfiles/jerezGuitar.wav
;
#X connect 1 0 9 0;
#X connect 2 0 4 0;
#X connect 2 1 11 0;
#X connect 3 0 10 0;
#X connect 3 0 12 0;
#X connect 4 0 6 0;
#X connect 4 1 5 0;
#X connect 5 0 6 1;
#X connect 6 0 7 0;
#X connect 7 0 3 0;
#X connect 8 0 11 0;
#X connect 9 0 2 0;
#X connect 9 1 8 0;
#X connect 12 0 13 0;
#X connect 13 0 14 0;
#X connect 15 0 12 1;
#X connect 16 0 20 0;
#X connect 17 0 16 0;
#X connect 18 0 19 0;
#X connect 18 0 17 0;
#X connect 19 0 21 0;
#X connect 22 0 47 0;
#X connect 23 0 44 0;
#X connect 25 0 48 0;
#X connect 26 0 42 0;
#X connect 26 0 43 0;
#X connect 27 0 29 0;
#X connect 27 1 34 0;
#X connect 28 0 35 0;
#X connect 28 0 40 0;
#X connect 29 0 30 0;
#X connect 29 1 39 0;
#X connect 30 0 31 0;
#X connect 31 0 28 0;
#X connect 32 0 34 0;
#X connect 33 0 27 0;
#X connect 33 1 32 0;
#X connect 35 0 36 0;
#X connect 36 0 41 0;
#X connect 37 0 35 1;
#X connect 38 0 33 0;
#X connect 39 0 30 1;
#X connect 45 0 26 0;
#X connect 46 0 23 0;
#X connect 47 0 44 0;
#X connect 48 0 43 0;
#X connect 48 0 44 0;
#X restore 35 222 pd insample;
#X floatatom 179 677 10 0 0 0 - #0-samp-msec -, f 10;
#X obj 31 171 bng 15 250 50 0 empty empty empty 0 -6 0 8 -262144 -1
-1;
#X obj 31 725 s location;
#X text 78 643 location;
#X text 75 659 (stops;
#X text 80 674 motion);
#X floatatom 221 252 5 0 0 0 - window-size -, f 5;
#X obj 221 228 s window-size;
#X text 221 107 window size \,;
#X text 221 122 samples;
#X text 262 139 <- set;
#X text 100 306 ------- location controls -------;
#X text 274 252 (check);
#X obj 98 195 bng 15 250 50 0 empty empty empty 0 -6 0 8 -262144 -1
-1;
#X obj 160 354 sensorIn;
#X obj 8 371 s x1;
#X obj 24 395 s y1;
#X obj 45 420 s z1;
#X obj 161 704 *;
#X obj 159 790 s loc;
#X obj 31 697 r loc;
#X obj 378 644 *;
#X obj 379 733 s loc2;
#X floatatom 578 399 7 0 0 0 - location-set2 -, f 7;
#X text 551 344 location;
#X text 548 360 (stops;
#X text 553 375 motion);
#X obj 527 399 r loc2;
#X obj 527 429 s location2;
#X obj 118 195 bng 15 250 50 0 empty empty empty 17 7 0 10 -262144
-1 -1;
#X obj 371 444 s z2;
#X obj 335 421 s y2;
#X obj 330 397 s x2;
#X floatatom 412 637 10 0 0 0 - #0-samp-msec2 -, f 10;
#X msg 221 162 8192;
#X obj 160 328 bng 15 250 50 0 empty empty empty 17 7 0 10 -262144
-1 -1;
#X text 191 326 connect/start;
#X text 39 189 files ->;
#N canvas 91 187 821 693 fft-analysis2 0;
#X obj 51 477 *~;
#X obj 18 477 *~;
#X obj 18 499 -~;
#X obj 167 475 *~;
#X obj 136 475 *~;
#X obj 136 497 +~;
#X obj 109 193 *~;
#X obj 78 193 *~;
#X obj 50 193 *~;
#X obj 19 193 *~;
#X obj 19 218 +~;
#X obj 127 379 *~;
#X obj 20 622 *~;
#X obj 238 430 rfft~;
#X obj 108 161 rfft~;
#X obj 19 564 rifft~;
#X obj 21 646 outlet~;
#X obj 97 379 *~;
#X obj 97 401 +~;
#X obj 124 218 -~;
#X obj 18 431 *~;
#X obj 51 432 *~;
#X obj 127 622 r window-size;
#X obj 426 595 r window-size;
#X obj 426 644 block~;
#X obj 19 349 +~ 1e-15;
#X obj 19 598 *~;
#X obj 52 598 tabreceive~ \$0-hann;
#X obj 127 643 expr 2/(3*$f1);
#X obj 591 563 loadbang;
#X msg 426 619 set \$1 4;
#X obj 97 425 q8_rsqrt~;
#X obj 137 543 tabsend~ prev-imag;
#X obj 136 567 tabsend~ prev-real;
#X obj 20 8 tabreceive~ prev-real;
#X obj 73 29 tabreceive~ prev-imag;
#X text 272 5 recall previous output amplitude. Its phase will be added
to the phase difference we measure from two windows in the the recorded
sound.;
#X obj 121 69 *~;
#X obj 89 69 *~;
#X obj 89 91 +~;
#X obj 159 94 q8_rsqrt~;
#X obj 159 71 +~ 1e-20;
#X obj 73 119 *~;
#X obj 19 118 *~;
#X obj 181 290 r lock;
#X obj 29 245 lrshift~ 1;
#X obj 24 269 lrshift~ -1;
#X obj 141 245 lrshift~ 1;
#X obj 133 269 lrshift~ -1;
#X obj 35 300 *~;
#X obj 159 312 *~;
#X obj 19 325 +~;
#X obj 125 331 +~;
#X text 247 66 divide by the magnitude to make a unit-magnitude complex
amplitude (phase only). The 1e-20 is to prevent overflows. q8_rsqrt~
is reciprocal square root.;
#X text 247 165 Take FT of the window in back. Multiply its conjugate
by the normalized previous output. The result has the magnitude of
the input sound and phase (previous output phase) minus (back window
phase).;
#X text 249 370 Normalize again \, this time taking care to salt each
channel with 1e-15 so that we get a unit complex number even if everything
was zero heretofore.;
#X text 288 427 Now take the FT of the forward window and multiply
it by the unit complex number from above. The magnitude will be that
of the forward window and the phase will be the previous output phase
plus the phase difference between the two analysis windows -- except
that if "lock" is on \, they will be modified to agree progressively
better with the inter-channel phase relationships of the input.;
#X text 249 242 If "lock" is on \, encourage neighboring channels to
stay in phase by adding the two neighboring complex amplitudes. The
result will tend toward the channel with the strongest amplitude. If
the phase relationships between channels in the output and those in
the input are in parallel \, then neighboring channels of the quotient
will all have the same phase and this will not change any phases. (lrshift
shifts the signal to the left or right depending on its argument.)
;
#X text 387 560 'set' message to block;
#X text 390 577 allows variable size;
#X text 259 126 Read two windows \, one 1/4 length behind the other
\, of the input sound \, with Hann window function (see inside).;
#N canvas 1 87 1014 791 read-windows2 0;
#X obj 18 693 *~;
#X obj 166 303 f;
#X obj 102 91 r window-size;
#X obj 102 139 /;
#X obj 195 695 *~;
#X obj 166 252 bang~;
#X obj 17 551 line~;
#X obj 102 164 * 1000;
#X obj 208 305 +;
#X obj 288 275 *;
#X obj 188 371 / 1000;
#X obj 166 394 *;
#X text 198 394 reading location (samples);
#X obj 51 597 / 4;
#X obj 288 245 * 0.01;
#X floatatom 340 498 7 0 0 0 - - -, f 7;
#X obj 340 474 *;
#X obj 499 387 * 0.01;
#X obj 501 408 + 69;
#X obj 502 429 mtof;
#X obj 502 451 / 440;
#X obj 375 474 t b f;
#X obj 19 719 outlet~;
#X obj 195 720 outlet~;
#X obj 218 664 tabreceive~ \$0-hann;
#X msg 803 409 0;
#X obj 803 432 s speed;
#X msg 768 532 set \$1;
#X obj 768 557 s speed-set;
#X text 411 498 stretched window size (samples);
#X msg 877 533 set \$1;
#X obj 877 558 s transpo-set;
#X msg 826 278 set \$1;
#X obj 808 140 t b f;
#X obj 826 257 f;
#X obj 754 171 int;
#X obj 754 203 sel 0;
#X msg 813 174 1;
#X msg 813 197 0;
#X obj 754 228 del 300;
#X obj 188 347 r \$0-insamprate;
#X obj 528 586 r rewind;
#X floatatom 111 187 5 0 0 0 - - -, f 5;
#X obj 102 115 t f b;
#X obj 142 139 samplerate~;
#X obj 102 208 / 4;
#X obj 203 420 / 2;
#X obj 166 420 -;
#X text 239 417 back up 1/2 window;
#X obj 16 597 -~;
#X text 43 6 Read two windows out of the recorded sample \, one 1/4
ahead of the other. The mid point of the front window is specified
by "location". If "speed" is nonzero \, "location" automatically precesses.
;
#X obj 528 720 * -0.5;
#X text 81 601 "back" window 1/4 cycle behind "front" one;
#X text 137 205 computation period (msec) for overlap of 4;
#X text 164 186 msec in a window;
#X obj 528 666 /;
#X obj 528 691 * 1000;
#X obj 528 642 t f b;
#X obj 568 666 samplerate~;
#X obj 528 619 f;
#X msg 845 711 \; rewind bang \; speed \$1;
#X obj 845 684 r auto;
#X obj 730 685 r no-detune;
#X text 326 275 loop to precess the location according;
#X text 325 291 to the "speed" parameter.;
#X text 611 31 if location changes \, update number box;
#X text 610 50 in main window via "location-set" \, but;
#X text 613 69 taking care to limit frequency of updates.;
#X text 756 462 reflect control changes;
#X text 756 479 in main window.;
#X text 754 344 setting location by hand;
#X text 752 362 sets speed to zero.;
#X text 760 653 misc controls;
#X text 496 527 "rewind" control takes us;
#X text 499 545 to a location depending on;
#X text 499 564 stretched window size.;
#X obj 16 469 f;
#X obj 17 496 pack;
#X obj 15 440 b;
#X msg 17 523 0 \, \$1 \$2;
#X obj 288 222 r speed2;
#X obj 187 276 r location2;
#X obj 243 309 s see-loc2;
#X obj 499 365 r transpo2;
#X obj 17 642 tabread4~ \$0-sample2;
#X obj 194 637 tabread4~ \$0-sample2;
#X obj 768 508 r speed2;
#X obj 877 507 r transpo2;
#X obj 803 385 r location2;
#X obj 808 94 r location2;
#X obj 817 116 r see-loc2;
#X obj 826 302 s location-set2;
#X floatatom 75 557 5 0 0 0 - - -, f 5;
#X msg 528 744 \; location2 \$1;
#X obj 340 448 r window-size;
#X msg 730 707 \; transpo2 0;
#X connect 0 0 22 0;
#X connect 1 0 8 0;
#X connect 1 0 11 0;
#X connect 2 0 43 0;
#X connect 3 0 7 0;
#X connect 4 0 23 0;
#X connect 5 0 1 0;
#X connect 6 0 49 0;
#X connect 6 0 85 0;
#X connect 7 0 42 0;
#X connect 7 0 45 0;
#X connect 8 0 1 1;
#X connect 8 0 82 0;
#X connect 9 0 8 1;
#X connect 10 0 11 1;
#X connect 11 0 47 0;
#X connect 13 0 49 1;
#X connect 14 0 9 0;
#X connect 15 0 13 0;
#X connect 15 0 46 0;
#X connect 15 0 59 1;
#X connect 15 0 76 1;
#X connect 16 0 15 0;
#X connect 17 0 18 0;
#X connect 18 0 19 0;
#X connect 19 0 20 0;
#X connect 20 0 21 0;
#X connect 21 0 16 0;
#X connect 21 1 16 1;
#X connect 24 0 4 1;
#X connect 24 0 0 1;
#X connect 25 0 26 0;
#X connect 27 0 28 0;
#X connect 30 0 31 0;
#X connect 32 0 91 0;
#X connect 33 0 35 0;
#X connect 33 1 34 1;
#X connect 34 0 32 0;
#X connect 35 0 36 0;
#X connect 36 0 37 0;
#X connect 36 0 39 0;
#X connect 37 0 35 1;
#X connect 38 0 35 1;
#X connect 39 0 38 0;
#X connect 39 0 34 0;
#X connect 40 0 10 0;
#X connect 41 0 59 0;
#X connect 43 0 3 0;
#X connect 43 1 44 0;
#X connect 44 0 3 1;
#X connect 45 0 9 1;
#X connect 45 0 77 1;
#X connect 46 0 47 1;
#X connect 47 0 78 0;
#X connect 47 0 84 1;
#X connect 47 0 85 1;
#X connect 49 0 84 0;
#X connect 51 0 93 0;
#X connect 55 0 56 0;
#X connect 56 0 51 0;
#X connect 57 0 55 0;
#X connect 57 1 58 0;
#X connect 58 0 55 1;
#X connect 59 0 57 0;
#X connect 61 0 60 0;
#X connect 62 0 95 0;
#X connect 76 0 77 0;
#X connect 77 0 79 0;
#X connect 78 0 76 0;
#X connect 79 0 6 0;
#X connect 79 0 92 0;
#X connect 80 0 14 0;
#X connect 81 0 1 1;
#X connect 83 0 17 0;
#X connect 84 0 0 0;
#X connect 85 0 4 0;
#X connect 86 0 27 0;
#X connect 87 0 30 0;
#X connect 88 0 25 0;
#X connect 89 0 33 0;
#X connect 90 0 33 0;
#X connect 94 0 16 0;
#X restore 109 133 pd read-windows2;
#X msg 591 589 \; pd dsp 1 \; window-size 2048 \; transpo2 0 \; rewind
bang;
#X connect 0 0 2 1;
#X connect 1 0 2 0;
#X connect 2 0 33 0;
#X connect 2 0 15 0;
#X connect 3 0 5 1;
#X connect 4 0 5 0;
#X connect 5 0 32 0;
#X connect 5 0 15 1;
#X connect 6 0 19 1;
#X connect 7 0 19 0;
#X connect 8 0 10 1;
#X connect 9 0 10 0;
#X connect 10 0 46 0;
#X connect 10 0 45 0;
#X connect 10 0 51 0;
#X connect 11 0 18 1;
#X connect 12 0 16 0;
#X connect 13 0 1 1;
#X connect 13 0 3 1;
#X connect 13 1 0 1;
#X connect 13 1 4 1;
#X connect 14 0 9 1;
#X connect 14 0 7 1;
#X connect 14 1 6 1;
#X connect 14 1 8 1;
#X connect 15 0 26 0;
#X connect 17 0 18 0;
#X connect 18 0 31 0;
#X connect 19 0 47 0;
#X connect 19 0 48 0;
#X connect 19 0 52 0;
#X connect 20 0 1 0;
#X connect 20 0 4 0;
#X connect 21 0 0 0;
#X connect 21 0 3 0;
#X connect 22 0 28 0;
#X connect 23 0 30 0;
#X connect 25 0 17 1;
#X connect 25 0 17 0;
#X connect 25 0 20 0;
#X connect 26 0 12 0;
#X connect 27 0 26 1;
#X connect 28 0 12 1;
#X connect 29 0 62 0;
#X connect 30 0 24 0;
#X connect 31 0 20 1;
#X connect 31 0 21 1;
#X connect 34 0 38 1;
#X connect 34 0 38 0;
#X connect 34 0 43 0;
#X connect 35 0 37 1;
#X connect 35 0 37 0;
#X connect 35 0 42 0;
#X connect 37 0 39 1;
#X connect 38 0 39 0;
#X connect 39 0 41 0;
#X connect 40 0 42 1;
#X connect 40 0 43 1;
#X connect 41 0 40 0;
#X connect 42 0 8 0;
#X connect 42 0 7 0;
#X connect 43 0 9 0;
#X connect 43 0 6 0;
#X connect 44 0 49 1;
#X connect 44 0 50 1;
#X connect 45 0 49 0;
#X connect 46 0 49 0;
#X connect 47 0 50 0;
#X connect 48 0 50 0;
#X connect 49 0 51 1;
#X connect 50 0 52 1;
#X connect 51 0 25 0;
#X connect 52 0 11 0;
#X connect 52 0 11 1;
#X connect 52 0 21 0;
#X connect 61 0 14 0;
#X connect 61 1 13 0;
#X restore 1136 282 pd fft-analysis2;
#X obj 323 102 loadbang;
#X obj 141 412 nbx 3 24 -1e+37 1e+37 0 0 empty empty empty 0 -8 0 24
-262144 -1 -1 80 256;
#X obj 453 515 nbx 3 24 -1e+37 1e+37 0 0 empty empty empty 0 -8 0 24
-262144 -1 -1 54 256;
#X msg 221 140 512;
#X obj 117 18 loadbang;
#X obj 115 50 delay 1000;
#X obj 119 87 delay 1000;
#X msg 30 113 \; pd dsp 1;
#X text 55 151 ON;
#X obj 159 759 line;
#X msg 160 730 \$1 200;
#X obj 821 182 / 1023;
#X obj 821 63 r x1;
#X obj 822 237 line;
#X msg 820 211 \$1 50;
#X obj 378 704 line;
#X msg 379 675 \$1 200;
#X obj 1139 306 *~ 1;
#X obj 1162 181 / 1023;
#X obj 1163 244 line;
#X msg 1163 217 \$1 50;
#X obj 1158 49 r y2;
#N canvas 604 214 630 479 player 0;
#X text 170 82 reversed \, attenuated;
#X obj 90 136 tgl 15 0 empty empty empty 0 -6 0 8 -262144 -1 -1 0 1
;
#X text 177 59 transposed \, attenuated;
#X text -11 235 1999 by Karlheinz Essl;
#X text 119 37 original pitch \, original gain;
#X text 96 166 loop on/off;
#X obj 13 136 play-samp~;
#X obj 231 158 openpanel;
#X obj 230 239 table play-samp;
#X msg 231 185 read -resize \$1 play-samp;
#X obj 231 211 soundfiler;
#X msg 28 62 2.5 play-samp 0.25;
#X obj 231 137 bng 20 250 50 0 empty empty open-sample 0 -6 0 8 -262144
-1 -1;
#X msg 48 83 -1 play-samp 0.8;
#X obj 357 111 inlet;
#X obj 360 148 delay 1000;
#X obj 5 12 inlet;
#X obj 125 215 print;
#X msg 122 318 symbol /home/warholiano/bagatelles/tech/gametrak/soundfiles/compas.wav
;
#X obj 20 403 dac~;
#X obj 14 346 fdn~ 8 100;
#X msg 55 14 1 play-samp 0;
#X msg 13 40 0.8 play-samp 1;
#X connect 1 0 6 1;
#X connect 6 0 20 0;
#X connect 7 0 9 0;
#X connect 7 0 17 0;
#X connect 9 0 10 0;
#X connect 11 0 6 0;
#X connect 12 0 7 0;
#X connect 13 0 6 0;
#X connect 14 0 18 0;
#X connect 14 0 15 0;
#X connect 15 0 22 0;
#X connect 18 0 9 0;
#X connect 20 0 19 0;
#X connect 20 1 19 1;
#X connect 21 0 6 0;
#X connect 22 0 6 0;
#X restore 418 103 pd player;
#X obj 769 550 dac~ 1 2;
#X obj 176 614 hsl 128 15 0 1023 0 0 empty empty empty -2 -8 0 10 -4034
-1 -1 0 1;
#X obj 161 652 / 1023;
#X msg 221 184 32384;
#X obj 908 227 nbx 5 24 -1e+37 1e+37 0 0 empty empty empty 0 -8 0 24
-262144 -1 -1 0 256;
#X msg 851 117 0;
#X obj 1160 79 moses 650;
#X msg 1236 115 0;
#X obj 1221 211 nbx 5 24 -1e+37 1e+37 0 0 empty empty empty 0 -8 0
24 -262144 -1 -1 0 256;
#X obj 1201 48 nbx 5 24 -1e+37 1e+37 0 0 empty empty empty 0 -8 0 24
-262144 -1 -1 1022 256;
#X obj 912 52 nbx 5 24 -1e+37 1e+37 0 0 empty empty empty 0 -8 0 24
-262144 -1 -1 1023 256;
#X obj 821 90 moses 600;
#X obj 961 115 f;
#X obj 964 84 bng 15 250 50 0 empty empty empty 17 7 0 10 -262144 -1
-1;
#X obj 1353 108 f;
#X obj 1356 77 bng 15 250 50 0 empty empty empty 17 7 0 10 -262144
-1 -1;
#X obj 378 612 / 1023;
#X text 991 82 calibrate volume1;
#X text 1383 75 calibrate vol2;
#X obj 391 583 hsl 128 15 0 1023 0 0 empty empty empty -2 -8 0 10 -4034
-1 -1 0 1;
#X obj 418 519 f;
#X obj 418 478 bng 15 250 50 0 empty empty empty 17 7 0 10 -262144
-1 -1;
#X text 438 475 calibrate distance2;
#X obj 249 515 f;
#X obj 249 474 bng 15 250 50 0 empty empty empty 17 7 0 10 -262144
-1 -1;
#X text 269 471 calibrate distance1;
#X obj 1212 672 dac~ 1 2;
#X msg 221 206 2048;
#X obj 795 326 *~ 2;
#X obj 1121 372 *~ 0.7;
#X obj 750 379 *~ 0.7;
#X obj 805 379 *~ 0.7;
#X obj 429 422 loadbang;
#X obj 429 447 delay 5000;
#X obj 476 69 bng 15 250 50 0 empty empty empty 17 7 0 10 -262144 -1
-1;
#X obj 389 29 vsl 15 128 0 1 0 0 empty empty empty 0 -9 0 10 -262144
-1 -1 0 1;
#X obj 1367 406 osc~ 200;
#X obj 1369 373 + 50;
#X obj 1385 337 line;
#X msg 1386 303 \$1 1000;
#X obj 1357 220 bng 15 250 50 0 empty empty empty 17 7 0 10 -262144
-1 -1;
#X obj 1358 193 loadbang;
#X obj 1223 457 *~;
#X obj 1358 272 random 1250;
#X obj 1357 243 metro 4000;
#X obj 532 623 s freqRing;
#X obj 1424 377 r freqRing;
#X obj 1171 330 *~ 0.7;
#X obj 1367 434 *~ 0.7;
#X obj 1333 523 osc~ 200;
#X obj 1333 472 r freqRing;
#X obj 1228 515 *~;
#X obj 1333 498 * 1.33;
#X obj 1332 551 *~ 0.9;
#X obj 1209 600 fdn~ 8 100;
#X obj 323 490 - 450;
#X obj 322 526 moses 0;
#X obj 19 455 - 450;
#X obj 19 484 moses 0;
#X obj 895 400 tgl 15 0 empty empty empty 17 7 0 10 -262144 -1 -1 1
1;
#X obj 896 470 fdn~ 8 1000;
#X obj 810 470 fdn~ 8 100;
#X text 919 393 0 left \, 1 right;
#X obj 895 368 r rev;
#X obj 937 315 line;
#X text 758 692 rasgueo 533 \, 569 \, 605 \, 641 \, 663 \, 681 final
\,;
#X text 732 625 inicio 499 \, 471 \, 475 \, 480 \, 483 \, 495 \, 500
\, 519 \, 552 \, 555 \, 557 \, 572 \, 591 \, 632 \, 780 armonico;
#N canvas 277 252 450 300 detector 0;
#X obj 81 17 inlet;
#X obj 82 82 sel 0;
#X obj 84 44 change;
#X obj 83 133 s changeChord;
#X obj 80 106 speedlim 700;
#X connect 0 0 2 0;
#X connect 1 0 4 0;
#X connect 2 0 1 0;
#X connect 4 0 3 0;
#X restore 1038 211 pd detector;
#N canvas 26 82 800 818 chords 0;
#X obj 147 126 r changeChord;
#X msg 164 174 clear;
#X floatatom 168 264 5 0 0 0 - - -, f 5;
#X obj 176 244 bng 20 250 50 0 empty empty empty 0 -6 0 8 -262144 -1
-1;
#X text 151 147 choose next number;
#X text 216 175 clear / refill urn;
#X text 205 242 bang if urn is empty;
#X msg 48 376 499;
#X msg 68 399 471;
#X msg 84 371 475;
#X msg 106 407 480;
#X msg 120 382 483;
#X msg 145 411 495;
#X msg 157 376 500;
#X msg 184 409 519;
#X msg 195 380 552;
#X msg 218 406 555;
#X msg 229 375 557;
#X msg 256 407 572;
#X msg 269 379 591;
#X msg 297 410 632;
#X msg 336 396 780;
#X obj 362 528 s chord;
#X msg 382 389 529;
#X obj 383 471 line;
#X obj 465 467 line;
#X obj 547 466 line;
#X obj 629 462 line;
#X obj 709 459 line;
#X obj 791 455 line;
#X obj 149 327 sel 0 1 2 3 4 5 6 7 8 9 10 11 12 13 14 15 16 17 18 19
;
#X obj 147 212 urn 20;
#X msg 464 385 565;
#X msg 546 384 601;
#X msg 628 380 638;
#X msg 708 377 659;
#X msg 790 373 676;
#X obj 391 416 delay 1000;
#X obj 473 412 delay 1000;
#X obj 555 411 delay 1000;
#X obj 637 407 delay 1000;
#X obj 717 404 delay 1000;
#X obj 799 400 delay 1000;
#X msg 391 442 533 500;
#X msg 473 438 569 500;
#X msg 555 437 605 500;
#X msg 637 433 641 500;
#X msg 717 430 663 500;
#X msg 799 426 681 500;
#X floatatom 98 314 5 0 0 0 - - -, f 5;
#X obj 147 286 speedlimiter+ 100;
#X text 524 117 780 \, 632 \, 533;
#X text 307 309 10;
#X text 220 309 5;
#X text 400 309 15;
#X text 487 308 20;
#X text 532 145 15 \, 14 \, 16 \, 15;
#X msg 817 284 780;
#X msg 832 308 632;
#X msg 849 340 533;
#X obj 895 379 s chord;
#X msg 857 285 780;
#X obj 795 48 r changeChord;
#X obj 796 186 counter;
#X floatatom 755 229 5 0 0 0 - - -, f 5;
#X obj 727 149 bng 15 250 50 0 empty empty empty 17 7 0 10 -262144
-1 -1;
#X obj 795 146 speedlimiter+ 500;
#X msg 895 288 499;
#X msg 929 299 495;
#X msg 960 299 499;
#X msg 1000 306 495;
#X msg 1040 301 638;
#X msg 1088 292 659;
#X msg 1088 256 601;
#X obj 837 235 sel 0 1 2 3 4 5 6 7 8 9 10;
#X obj 795 100 spigot;
#X obj 832 75 r acordes;
#X obj 671 304 s parte1seccion2;
#X obj 671 278 sel 1;
#X obj 671 252 > 11;
#X msg 1219 327 533;
#X obj 1265 366 s chord;
#X msg 1227 272 780;
#X obj 1165 35 r changeChord;
#X obj 1166 173 counter;
#X obj 1165 133 speedlimiter+ 500;
#X msg 1265 275 499;
#X msg 1410 288 638;
#X msg 1458 279 659;
#X msg 1458 243 601;
#X obj 1207 222 sel 0 1 2 3 4 5 6 7 8 9 10;
#X obj 1165 87 spigot;
#X obj 1202 62 r acordesBaile;
#X msg 1187 271 722;
#X msg 1202 295 734;
#X obj 1102 131 bng 15 250 50 0 empty empty empty 17 7 0 10 -262144
-1 -1;
#X floatatom 1133 204 5 0 0 0 - - -, f 5;
#X msg 1299 286 595;
#X msg 1330 286 499;
#X msg 1370 293 695;
#X obj 1136 314 sel 11;
#X msg 1129 356 32384;
#X obj 1126 379 s win;
#X connect 1 0 31 0;
#X connect 3 0 1 0;
#X connect 7 0 22 0;
#X connect 8 0 22 0;
#X connect 9 0 22 0;
#X connect 10 0 22 0;
#X connect 11 0 22 0;
#X connect 12 0 22 0;
#X connect 13 0 22 0;
#X connect 14 0 22 0;
#X connect 15 0 22 0;
#X connect 16 0 22 0;
#X connect 17 0 22 0;
#X connect 18 0 22 0;
#X connect 19 0 22 0;
#X connect 20 0 22 0;
#X connect 21 0 22 0;
#X connect 23 0 24 0;
#X connect 24 0 22 0;
#X connect 25 0 22 0;
#X connect 26 0 22 0;
#X connect 27 0 22 0;
#X connect 28 0 22 0;
#X connect 29 0 22 0;
#X connect 30 0 7 0;
#X connect 30 1 8 0;
#X connect 30 2 9 0;
#X connect 30 3 10 0;
#X connect 30 4 11 0;
#X connect 30 5 12 0;
#X connect 30 6 13 0;
#X connect 30 7 14 0;
#X connect 30 8 15 0;
#X connect 30 9 16 0;
#X connect 30 10 17 0;
#X connect 30 11 18 0;
#X connect 30 12 19 0;
#X connect 30 13 20 0;
#X connect 30 14 21 0;
#X connect 30 15 23 0;
#X connect 30 15 37 0;
#X connect 30 16 32 0;
#X connect 30 16 38 0;
#X connect 30 17 33 0;
#X connect 30 17 39 0;
#X connect 30 18 34 0;
#X connect 30 18 40 0;
#X connect 30 19 35 0;
#X connect 30 19 41 0;
#X connect 30 20 36 0;
#X connect 30 20 42 0;
#X connect 31 0 2 0;
#X connect 31 0 50 0;
#X connect 31 1 3 0;
#X connect 32 0 25 0;
#X connect 33 0 26 0;
#X connect 34 0 27 0;
#X connect 35 0 28 0;
#X connect 36 0 29 0;
#X connect 37 0 43 0;
#X connect 38 0 44 0;
#X connect 39 0 45 0;
#X connect 40 0 46 0;
#X connect 41 0 47 0;
#X connect 42 0 48 0;
#X connect 43 0 24 0;
#X connect 44 0 25 0;
#X connect 45 0 26 0;
#X connect 46 0 27 0;
#X connect 47 0 28 0;
#X connect 48 0 29 0;
#X connect 50 0 49 0;
#X connect 50 0 30 0;
#X connect 57 0 60 0;
#X connect 58 0 60 0;
#X connect 59 0 60 0;
#X connect 61 0 60 0;
#X connect 62 0 75 0;
#X connect 63 0 64 0;
#X connect 63 0 74 0;
#X connect 63 0 79 0;
#X connect 65 0 63 2;
#X connect 66 0 63 0;
#X connect 67 0 60 0;
#X connect 68 0 60 0;
#X connect 69 0 60 0;
#X connect 70 0 60 0;
#X connect 71 0 60 0;
#X connect 72 0 60 0;
#X connect 73 0 60 0;
#X connect 74 1 57 0;
#X connect 74 2 58 0;
#X connect 74 3 59 0;
#X connect 74 4 61 0;
#X connect 74 5 67 0;
#X connect 74 6 68 0;
#X connect 74 7 69 0;
#X connect 74 8 70 0;
#X connect 74 9 71 0;
#X connect 74 10 72 0;
#X connect 74 11 73 0;
#X connect 75 0 66 0;
#X connect 76 0 75 1;
#X connect 78 0 77 0;
#X connect 79 0 78 0;
#X connect 80 0 81 0;
#X connect 82 0 81 0;
#X connect 83 0 91 0;
#X connect 84 0 90 0;
#X connect 84 0 96 0;
#X connect 85 0 84 0;
#X connect 86 0 81 0;
#X connect 87 0 81 0;
#X connect 88 0 81 0;
#X connect 89 0 81 0;
#X connect 90 1 93 0;
#X connect 90 2 94 0;
#X connect 90 3 80 0;
#X connect 90 4 82 0;
#X connect 90 5 86 0;
#X connect 90 6 97 0;
#X connect 90 7 98 0;
#X connect 90 8 99 0;
#X connect 90 9 87 0;
#X connect 90 10 88 0;
#X connect 90 11 89 0;
#X connect 91 0 85 0;
#X connect 92 0 91 1;
#X connect 93 0 81 0;
#X connect 94 0 81 0;
#X connect 95 0 84 2;
#X connect 96 0 100 0;
#X connect 97 0 81 0;
#X connect 98 0 81 0;
#X connect 99 0 81 0;
#X connect 100 0 101 0;
#X connect 101 0 102 0;
#X restore 558 97 pd chords;
#X obj 65 513 spigot;
#X obj 154 440 r chord;
#X obj 153 511 spigot;
#X obj 104 488 r sw1;
#X obj 192 486 r sw2;
#N canvas 177 254 1233 551 sequencer 0;
#X msg 117 254 1;
#X obj 117 283 s rev;
#X obj 182 280 s sw1;
#X obj 232 279 s sw2;
#X msg 182 251 0;
#X msg 230 251 1;
#X msg 61 251 32384;
#X obj 60 278 s win;
#X obj 62 36 inlet;
#X obj 84 171 s muteParte1;
#X text 190 153 ---> fadeout before changing parameters;
#X obj 84 139 delay 60000;
#X text 5 33 0 sec;
#X obj 282 275 s acordes;
#X msg 280 249 1;
#X text 271 218 ---> increase window \, put reverb \, filter values
\, use chords;
#X obj 62 216 delay 1000;
#X text 314 384 ---> 60 sec impro at window 128 with all sensor values
;
#X msg 34 368 1;
#X obj 33 394 s sw1;
#X obj 80 393 s sw2;
#X msg 81 367 0;
#X obj 130 397 s acordes;
#X msg 128 371 0;
#X obj 212 396 s win;
#X msg 213 369 512;
#X obj 23 91 loadbang;
#X obj 262 397 s rev;
#X msg 262 368 0;
#X obj 822 235 s acordesBaile;
#X obj 32 330 r parte1seccion22;
#X text 1041 164 ---> 60 sec impro at window 128 with all sensor values
;
#X obj 760 174 s sw1;
#X obj 807 173 s sw2;
#X obj 856 176 s acordes;
#X msg 855 151 0;
#X obj 939 176 s win;
#X obj 989 177 s rev;
#X obj 759 110 r parte1seccion2;
#X msg 821 206 1;
#X msg 761 148 0;
#X msg 808 147 1;
#X msg 989 148 1;
#X msg 940 149 22096;
#X connect 0 0 1 0;
#X connect 4 0 2 0;
#X connect 5 0 3 0;
#X connect 6 0 7 0;
#X connect 8 0 11 0;
#X connect 8 0 16 0;
#X connect 14 0 13 0;
#X connect 16 0 0 0;
#X connect 16 0 4 0;
#X connect 16 0 5 0;
#X connect 16 0 6 0;
#X connect 16 0 14 0;
#X connect 18 0 19 0;
#X connect 21 0 20 0;
#X connect 23 0 22 0;
#X connect 25 0 24 0;
#X connect 26 0 16 0;
#X connect 28 0 27 0;
#X connect 30 0 18 0;
#X connect 30 0 21 0;
#X connect 30 0 23 0;
#X connect 30 0 25 0;
#X connect 30 0 28 0;
#X connect 35 0 34 0;
#X connect 38 0 40 0;
#X connect 38 0 41 0;
#X connect 38 0 35 0;
#X connect 38 0 43 0;
#X connect 38 0 42 0;
#X connect 38 0 39 0;
#X connect 39 0 29 0;
#X connect 40 0 32 0;
#X connect 41 0 33 0;
#X connect 42 0 37 0;
#X connect 43 0 36 0;
#X restore 441 220 pd sequencer;
#X obj 343 178 r win;
#X obj 439 192 bng 15 250 50 0 empty empty empty 17 7 0 10 -262144
-1 -1;
#X text 463 188 START;
#X floatatom 90 588 5 0 0 0 - - -, f 5;
#X obj 155 466 - 450;
#X floatatom 103 463 5 0 0 0 - - -, f 5;
#X obj 937 263 r muteParte1;
#X msg 1000 320 1 3000;
#X obj 998 290 delay 5000;
#X msg 937 290 0 8000;
#X text 754 729 780 \, 632 \, 533 \,;
#X msg 300 162 512;
#X obj 796 289 *~ 4;
#X text 455 273 722 \, 734 \,;
#X msg 268 188 48096;
#X obj 349 367 s boton;
#X obj 697 65 r boton;
#X floatatom 697 104 5 0 0 0 - - -, f 5;
#X obj 697 137 sel 1;
#X obj 711 172 bng 15 250 50 0 empty empty empty 17 7 0 10 -262144
-1 -1;
#N canvas 193 164 1086 735 filesMixer 0;
#X obj 300 39 inlet;
#X msg 142 350 0;
#X msg 142 324 1;
#X obj 73 397 readsf~ 2 1e+06;
#X msg 73 257 open /home/warholiano/bagatelles/tech/gametrak/soundfiles/mujeres.wav
;
#X msg 408 442 0;
#X msg 408 417 1;
#X obj 339 490 readsf~ 2 1e+06;
#X msg 675 540 0;
#X msg 675 512 1;
#X obj 606 585 readsf~ 2 1e+06;
#X msg 622 137 0;
#X msg 622 109 1;
#X obj 553 182 readsf~ 2 1e+06;
#X msg 339 350 open /home/warholiano/bagatelles/tech/gametrak/soundfiles/hombres.wav
;
#X msg 553 42 open /home/warholiano/bagatelles/tech/gametrak/soundfiles/mix_before_abanico.wav
;
#X obj 18 15 loadbang;
#X obj 18 50 delay 1000;
#X obj 18 92 delay 100;
#X obj 18 133 delay 100;
#X obj 18 173 delay 100;
#X obj 95 76 s loadFirst;
#X obj 97 113 s loadSecond;
#X obj 98 153 s loadThird;
#X obj 99 197 s loadFourth;
#X obj 553 12 r loadFirst;
#X obj 73 231 r loadSecond;
#X obj 339 326 r loadThird;
#X obj 606 419 r loadFourth;
#X text 104 12 load files at init;
#X obj 242 188 s playFirst;
#X obj 328 188 s playSecond;
#X obj 297 216 s playThird;
#X obj 387 215 s playFourth;
#X obj 656 108 r playFirst;
#X obj 186 324 r playSecond;
#X obj 453 419 r playThird;
#X obj 716 512 r playFourth;
#X obj 300 69 counter;
#X floatatom 315 97 5 0 0 0 - - -, f 5;
#X text 300 11 play sequencially with button;
#X obj 300 157 s muteStrings;
#X text 403 156 mute other part;
#X obj 553 266 dac~;
#X obj 164 424 r ampCtrlOne;
#X obj 456 515 r ampCtrlTwo;
#X obj 73 531 dac~;
#X obj 341 594 dac~;
#X obj 607 679 dac~;
#X obj 300 130 sel 4 6 8 10;
#X obj 554 226 *~ 0.8;
#X obj 605 227 *~ 0.8;
#X obj 340 534 *~ 0.2;
#X obj 391 551 *~ 0.2;
#X obj 125 458 *~ 0.6;
#X obj 74 441 *~ 0.6;
#X msg 606 445 open /home/warholiano/bagatelles/tech/gametrak/soundfiles/cordoba2.wav
;
#X obj 658 631 *~ 0.1;
#X obj 608 614 *~ 0.1;
#X connect 0 0 38 0;
#X connect 1 0 3 0;
#X connect 2 0 3 0;
#X connect 3 0 55 0;
#X connect 3 1 54 0;
#X connect 4 0 3 0;
#X connect 5 0 7 0;
#X connect 6 0 7 0;
#X connect 7 0 52 0;
#X connect 7 1 53 0;
#X connect 8 0 10 0;
#X connect 9 0 10 0;
#X connect 10 0 58 0;
#X connect 10 1 57 0;
#X connect 11 0 13 0;
#X connect 12 0 13 0;
#X connect 13 0 50 0;
#X connect 13 1 51 0;
#X connect 14 0 7 0;
#X connect 15 0 13 0;
#X connect 16 0 17 0;
#X connect 17 0 18 0;
#X connect 17 0 21 0;
#X connect 18 0 22 0;
#X connect 18 0 19 0;
#X connect 19 0 23 0;
#X connect 19 0 20 0;
#X connect 20 0 24 0;
#X connect 25 0 15 0;
#X connect 26 0 4 0;
#X connect 27 0 14 0;
#X connect 28 0 56 0;
#X connect 34 0 12 0;
#X connect 35 0 2 0;
#X connect 36 0 6 0;
#X connect 37 0 9 0;
#X connect 38 0 39 0;
#X connect 38 0 49 0;
#X connect 44 0 54 1;
#X connect 44 0 55 1;
#X connect 45 0 52 1;
#X connect 45 0 53 1;
#X connect 49 0 30 0;
#X connect 49 0 41 0;
#X connect 49 1 31 0;
#X connect 49 1 32 0;
#X connect 49 2 33 0;
#X connect 50 0 43 0;
#X connect 51 0 43 1;
#X connect 52 0 47 0;
#X connect 53 0 47 1;
#X connect 54 0 46 1;
#X connect 55 0 46 0;
#X connect 56 0 10 0;
#X connect 57 0 48 1;
#X connect 58 0 48 0;
#X restore 697 194 pd filesMixer;
#X obj 685 314 r muteStrings;
#X msg 685 338 0;
#X obj 1119 507 r muteStrings;
#X msg 1119 531 0;
#X obj 1219 256 s ampCtrlTwo;
#X obj 685 268 s ampCtrlOne;
#X obj 1212 562 *~ 1.2;
#X obj 846 426 *~;
#X text 887 426 era spigot~;
#X obj 661 562 scale;
#X obj 161 587 scale 0 350 0 1023 0;
#X obj 378 556 scale 0 350 0 1023 0;
#X obj 821 153 scale 600 1 0 1023;
#X obj 1160 145 scale 649 1 0 1023 0;
#X connect 0 0 7 0;
#X connect 1 0 154 0;
#X connect 5 0 23 1;
#X connect 6 0 4 0;
#X connect 18 0 4 1;
#X connect 19 0 20 0;
#X connect 19 1 21 0;
#X connect 19 2 22 0;
#X connect 19 2 45 0;
#X connect 19 2 90 1;
#X connect 19 2 124 0;
#X connect 19 3 37 0;
#X connect 19 4 36 0;
#X connect 19 5 35 0;
#X connect 19 5 46 0;
#X connect 19 5 87 1;
#X connect 19 5 122 0;
#X connect 19 6 157 0;
#X connect 23 0 54 0;
#X connect 25 0 7 0;
#X connect 26 0 60 0;
#X connect 28 0 33 0;
#X connect 32 0 33 0;
#X connect 34 0 4 2;
#X connect 38 0 26 1;
#X connect 39 0 12 0;
#X connect 40 0 19 0;
#X connect 43 0 61 0;
#X connect 44 0 153 0;
#X connect 44 0 70 0;
#X connect 47 0 12 0;
#X connect 48 0 49 0;
#X connect 49 0 40 0;
#X connect 49 0 50 0;
#X connect 50 0 18 0;
#X connect 50 0 34 0;
#X connect 50 0 51 0;
#X connect 53 0 24 0;
#X connect 54 0 53 0;
#X connect 55 0 58 0;
#X connect 55 0 71 0;
#X connect 56 0 77 0;
#X connect 56 0 78 0;
#X connect 56 0 79 1;
#X connect 57 0 95 1;
#X connect 57 0 154 1;
#X connect 57 0 168 0;
#X connect 58 0 57 0;
#X connect 59 0 27 0;
#X connect 60 0 59 0;
#X connect 61 0 96 0;
#X connect 61 0 114 0;
#X connect 62 0 64 0;
#X connect 62 0 75 0;
#X connect 63 0 61 1;
#X connect 63 0 167 0;
#X connect 64 0 63 0;
#X connect 65 0 73 0;
#X connect 65 0 76 0;
#X connect 65 0 81 1;
#X connect 69 0 23 0;
#X connect 70 0 12 0;
#X connect 71 0 134 0;
#X connect 72 0 55 0;
#X connect 73 0 176 0;
#X connect 73 1 74 0;
#X connect 74 0 62 0;
#X connect 78 0 175 0;
#X connect 78 1 72 0;
#X connect 79 0 78 1;
#X connect 79 0 175 1;
#X connect 80 0 79 0;
#X connect 81 0 73 1;
#X connect 81 0 176 1;
#X connect 82 0 81 0;
#X connect 83 0 26 0;
#X connect 88 0 87 0;
#X connect 91 0 90 0;
#X connect 94 0 12 0;
#X connect 95 0 97 0;
#X connect 95 0 98 0;
#X connect 97 0 67 0;
#X connect 97 0 67 1;
#X connect 98 0 170 0;
#X connect 99 0 100 0;
#X connect 100 0 91 0;
#X connect 100 0 88 0;
#X connect 101 0 66 1;
#X connect 102 0 66 0;
#X connect 103 0 115 0;
#X connect 106 0 105 0;
#X connect 107 0 111 0;
#X connect 108 0 107 0;
#X connect 109 0 118 0;
#X connect 110 0 106 0;
#X connect 110 0 104 0;
#X connect 111 0 110 0;
#X connect 113 0 103 0;
#X connect 114 0 109 0;
#X connect 115 0 109 1;
#X connect 116 0 120 0;
#X connect 117 0 119 0;
#X connect 118 0 169 0;
#X connect 119 0 116 0;
#X connect 120 0 118 1;
#X connect 121 0 93 0;
#X connect 121 1 93 1;
#X connect 122 0 123 0;
#X connect 123 1 174 0;
#X connect 124 0 125 0;
#X connect 125 1 136 0;
#X connect 126 0 170 1;
#X connect 127 0 67 0;
#X connect 127 1 67 1;
#X connect 128 0 67 0;
#X connect 128 1 67 1;
#X connect 130 0 126 0;
#X connect 131 0 154 1;
#X connect 136 0 173 0;
#X connect 137 0 146 0;
#X connect 137 0 147 0;
#X connect 138 0 145 0;
#X connect 138 0 173 0;
#X connect 139 0 136 1;
#X connect 140 0 138 1;
#X connect 142 0 12 0;
#X connect 143 0 141 0;
#X connect 146 0 138 0;
#X connect 148 0 151 0;
#X connect 148 0 150 0;
#X connect 149 0 131 0;
#X connect 150 0 149 0;
#X connect 151 0 131 0;
#X connect 154 0 95 0;
#X connect 156 0 12 0;
#X connect 158 0 159 0;
#X connect 159 0 160 0;
#X connect 160 0 161 0;
#X connect 160 0 162 0;
#X connect 163 0 164 0;
#X connect 164 0 97 1;
#X connect 164 0 98 1;
#X connect 165 0 166 0;
#X connect 166 0 169 1;
#X connect 169 0 121 0;
#X connect 170 0 128 0;
#X connect 173 0 68 0;
#X connect 173 0 69 0;
#X connect 174 0 86 0;
#X connect 174 0 83 0;
#X connect 174 0 112 0;
#X connect 175 0 55 0;
#X connect 176 0 62 0;
