#N canvas 429 134 980 757 10;
#X floatatom 274 394 6 0 0 0 - - -;
#X obj 2 2 cnv 15 700 20 empty empty hid 2 11 1 18 -233017 -66577 0
;
#X msg 374 140 close;
#X msg 374 119 refresh;
#X text 435 117 refresh device list;
#X msg 374 201 poll 2;
#X text 370 186 start polling and set the poll delay in ms;
#X text 356 33 !!! This software is very much alpha \, so any aspect
of it could change without notice !!!;
#X obj 215 332 route key rel abs syn;
#N canvas 219 279 631 544 Event_Codes 0;
#X text 28 48 (For a complete listing of Linux Input Events \, see
/usr/include/linux/input.h.);
#X obj 11 9 cnv 15 580 30 empty empty Event_Codes 20 12 1 14 -225271
-66577 0;
#X text 32 118 EVENT CODE;
#X text 162 118 #define;
#X text 232 118 number;
#X text 32 133 -----------------------------------;
#X text 32 148 X Axis;
#X text 32 163 Y Axis;
#X text 32 178 Z Axis;
#X text 32 193 Horizontal Wheel;
#X text 32 208 Dial;
#X text 32 223 Wheel;
#X text 32 238 Misc;
#X text 162 148 REL_X;
#X text 162 163 REL_Y;
#X text 162 178 REL_Z;
#X text 162 193 REL_HWHEEL;
#X text 162 208 REL_DIAL;
#X text 162 223 REL_WHEEL;
#X text 162 238 REL_MISC;
#X text 247 148 0;
#X text 247 163 1;
#X text 247 178 2;
#X text 247 193 6;
#X text 247 208 7;
#X text 247 223 8;
#X text 247 238 9;
#X text 307 118 EVENT CODE;
#X text 457 118 #define;
#X text 547 118 number;
#X text 307 148 Absolute X;
#X text 307 163 Absolute Y;
#X text 307 178 Absolute Z;
#X text 307 193 RX;
#X text 307 208 RY;
#X text 307 223 RZ;
#X text 307 238 Throttle;
#X text 307 253 Rudder;
#X text 307 268 Wheel;
#X text 307 283 Gas Pedal;
#X text 307 298 Brake Pedal;
#X text 307 313 Hat Switch 0 X-axis;
#X text 307 328 Hat Switch 0 Y-axis;
#X text 307 343 Hat Switch 1 X-axis;
#X text 307 358 Hat Switch 1 Y-axis;
#X text 307 373 Hat Switch 2 X-axis;
#X text 307 388 Hat Switch 2 Y-axis;
#X text 307 403 Hat Switch 3 X-axis;
#X text 307 418 Hat Switch 3 Y-axis;
#X text 307 433 Pressure;
#X text 307 448 Distance;
#X text 307 463 Tilt X-Axis;
#X text 307 478 Tilt Y-Axis;
#X text 307 493 Misc;
#X text 457 148 ABS_X;
#X text 457 163 ABS_Y;
#X text 457 178 ABS_Z;
#X text 457 193 ABS_RX;
#X text 457 208 ABS_RY;
#X text 457 223 ABS_RZ;
#X text 457 238 ABS_THROTTLE;
#X text 457 253 ABS_RUDDER;
#X text 457 268 ABS_WHEEL;
#X text 457 283 ABS_GAS;
#X text 457 298 ABS_BRAKE;
#X text 457 313 ABS_HAT0X;
#X text 457 328 ABS_HAT0Y;
#X text 457 343 ABS_HAT1X;
#X text 457 358 ABS_HAT1Y;
#X text 457 373 ABS_HAT2X;
#X text 457 388 ABS_HAT2Y;
#X text 457 403 ABS_HAT3X;
#X text 457 418 ABS_HAT3Y;
#X text 457 433 ABS_PRESSURE;
#X text 457 448 ABS_DISTANCE;
#X text 457 463 ABS_TILT_X;
#X text 457 478 ABS_TILT_Y;
#X text 457 493 ABS_MISC;
#X text 563 148 0;
#X text 563 163 1;
#X text 563 178 2;
#X text 563 193 3;
#X text 563 208 4;
#X text 563 223 5;
#X text 563 238 6;
#X text 563 253 7;
#X text 563 268 8;
#X text 563 283 9;
#X text 563 298 10;
#X text 563 313 16;
#X text 563 328 17;
#X text 563 343 18;
#X text 563 358 19;
#X text 563 373 20;
#X text 563 388 21;
#X text 563 403 22;
#X text 563 418 23;
#X text 563 433 24;
#X text 563 448 25;
#X text 563 463 26;
#X text 563 478 27;
#X text 563 493 28;
#X obj 30 89 cnv 15 250 25 empty empty Relative_Axes 20 12 1 12 -241660
-66577 0;
#X obj 308 89 cnv 15 280 25 empty empty Absolute_Axes 20 12 1 12 -241660
-66577 0;
#X text 307 133 ----------------------------------------;
#X text 32 285 EVENT CODE;
#X text 138 285 #define;
#X text 232 285 number;
#X text 32 300 -----------------------------------;
#X obj 30 256 cnv 15 250 25 empty empty Joystick_Buttons 20 12 1 12
-241660 -66577 0;
#X text 138 315 BTN_TRIGGER;
#X text 32 315 Trigger;
#X text 32 330 Thumb;
#X text 32 345 Thumb 2;
#X text 32 360 Top;
#X text 32 375 Top 2;
#X text 32 390 Pinkie;
#X text 32 405 Base 1;
#X text 138 404 BTN_BASE;
#X text 138 330 BTN_THUMB;
#X text 138 345 BTN_THUMB2;
#X text 138 360 BTN_TOP;
#X text 138 375 BTN_TOP2;
#X text 138 390 BTN_PINKIE;
#X text 245 315 288;
#X text 245 330 289;
#X text 245 345 290;
#X text 245 360 291;
#X text 245 375 292;
#X text 245 390 293;
#X text 245 405 294;
#X text 245 419 295;
#X text 245 434 296;
#X text 245 448 297;
#X text 138 418 BTN_BASE2;
#X text 138 433 BTN_BASE3;
#X text 138 447 BTN_BASE4;
#X text 32 419 Base 2;
#X text 32 434 Base 3;
#X text 32 448 Base 4;
#X text 32 463 Base 5;
#X text 32 477 Base 6;
#X text 138 462 BTN_BASE5;
#X text 138 476 BTN_BASE6;
#X text 245 463 298;
#X text 245 477 299;
#X restore 593 91 pd Event_Codes;
#N canvas 48 294 469 317 Event_Types 0;
#X text 28 48 (For a complete listing of Linux Input Events \, see
/usr/include/linux/input.h.);
#X text 61 90 EVENT TYPE;
#X text 61 135 Keys and Buttons;
#X text 61 150 Relative Axes;
#X text 61 165 Absolute Axes;
#X text 61 180 Misc Events;
#X text 61 195 LED Event;
#X text 61 210 Sounds;
#X text 61 225 Autorepeat Values;
#X text 61 240 Force Feedback;
#X text 230 90 #define;
#X text 230 135 EV_KEY;
#X text 230 150 EV_REL;
#X text 230 165 EV_ABS;
#X text 230 180 EV_MSC;
#X text 230 195 EV_LED;
#X text 230 210 EV_SND;
#X text 230 225 EV_REP;
#X text 230 240 EV_FF;
#X text 315 90 number;
#X text 331 120 0;
#X text 331 135 1;
#X text 331 150 2;
#X text 331 165 3;
#X text 331 180 4;
#X text 331 195 17;
#X text 331 210 18;
#X text 331 225 20;
#X text 331 240 21;
#X obj 11 9 cnv 15 400 30 empty empty Event_Types 20 12 1 14 -262131
-66577 0;
#X text 230 120 EV_SYN;
#X text 61 270 Force Feedback Status;
#X text 61 120 Syncronization Events;
#X text 230 270 EV_FF_STATUS;
#X text 331 270 23;
#X text 61 105 -------------------------------------------;
#X text 331 255 22;
#X text 230 255 EV_PWR;
#X text 61 255 Power Events (for UPS);
#X restore 593 71 pd Event_Types;
#N canvas 1 82 450 300 Event_Values 0;
#X text 28 48 (For a complete listing of Linux Input Events \, see
/usr/include/linux/input.h.);
#X obj 11 9 cnv 15 400 30 empty empty Event_Values 20 12 1 14 -261681
-66577 0;
#X restore 593 111 pd Event_Values;
#X msg 374 161 print;
#X obj 304 250 hid 0;
#X text 437 141 close the device;
#X text 437 162 print the device and element lists;
#X floatatom 310 418 6 0 0 0 - - -;
#X floatatom 355 403 6 0 0 0 - - -;
#X floatatom 398 404 6 0 0 0 - - -;
#X floatatom 523 438 6 0 0 0 - - -;
#X msg 298 145 info;
#N canvas 750 108 411 235 see 0;
#N canvas 108 318 543 264 route 0;
#X obj 27 14 inlet;
#X obj 72 226 outlet;
#X obj 19 226 outlet;
#X obj 172 226 outlet;
#X obj 222 204 symbol;
#X obj 222 226 outlet;
#X obj 272 204 symbol;
#X obj 272 226 outlet;
#X obj 322 204 symbol;
#X obj 322 226 outlet;
#X obj 372 204 symbol;
#X obj 372 226 outlet;
#X obj 122 225 outlet;
#X obj 422 204 symbol;
#X obj 422 226 outlet;
#X obj 472 204 symbol;
#X obj 472 226 outlet;
#X obj 26 63 route open device poll total product manufacturer transport
type vendorID productID;
#X connect 0 0 17 0;
#X connect 4 0 5 0;
#X connect 6 0 7 0;
#X connect 8 0 9 0;
#X connect 10 0 11 0;
#X connect 13 0 14 0;
#X connect 15 0 16 0;
#X connect 17 0 2 0;
#X connect 17 1 1 0;
#X connect 17 2 12 0;
#X connect 17 3 3 0;
#X connect 17 4 4 0;
#X connect 17 5 6 0;
#X connect 17 6 8 0;
#X connect 17 7 10 0;
#X connect 17 8 13 0;
#X connect 17 9 15 0;
#X restore 117 70 pd route info;
#X obj 81 96 tgl 15 0 empty empty open 0 -6 0 8 -262144 -1 -1 1 1;
#X obj 110 22 inlet;
#X obj 123 43 print info;
#X symbolatom 304 93 0 0 0 0 productID - -;
#X symbolatom 304 112 0 0 0 0 vendorID - -;
#X symbolatom 304 151 0 0 0 0 transport - -;
#X symbolatom 304 171 0 0 0 0 manufacturer - -;
#X symbolatom 186 192 0 0 0 0 product - -;
#X floatatom 97 140 5 0 0 0 device - -;
#X floatatom 97 162 5 0 0 0 poll - -;
#X symbolatom 304 131 0 0 0 0 type - -;
#X floatatom 97 182 5 0 0 0 total - -;
#X connect 0 0 1 0;
#X connect 0 1 9 0;
#X connect 0 2 10 0;
#X connect 0 3 12 0;
#X connect 0 4 8 0;
#X connect 0 5 7 0;
#X connect 0 6 6 0;
#X connect 0 7 11 0;
#X connect 0 8 5 0;
#X connect 0 9 4 0;
#X connect 2 0 0 0;
#X connect 2 0 3 0;
#X restore 420 271 pd see device info;
#N canvas 553 77 380 450 open 0;
#X obj 77 61 hradio 15 1 0 8 empty empty empty 0 -6 0 8 -262144 -1
-1 0;
#X msg 78 81 open mouse \$1;
#X obj 121 201 hradio 15 1 0 8 empty empty empty 0 -6 0 8 -262144 -1
-1 0;
#X msg 130 221 open keyboard \$1;
#X obj 50 13 hradio 15 1 0 8 empty empty empty 0 -6 0 8 -262144 -1
-1 0;
#X obj 55 417 outlet;
#X obj 85 108 hradio 15 1 0 8 empty empty empty 0 -6 0 8 -262144 -1
-1 0;
#X msg 94 128 open joystick \$1;
#X msg 59 33 open pointer \$1;
#X obj 101 155 hradio 15 1 0 8 empty empty empty 0 -6 0 8 -262144 -1
-1 0;
#X msg 110 175 open gamepad \$1;
#X obj 137 244 hradio 15 1 0 8 empty empty empty 0 -6 0 8 -262144 -1
-1 0;
#X msg 146 264 open keypad \$1;
#X obj 141 291 hradio 15 1 0 8 empty empty empty 0 -6 0 8 -262144 -1
-1 0;
#X msg 150 311 open multiaxiscontroller \$1;
#X text 155 342 or just open the first one:;
#X msg 138 363 open mouse;
#X msg 159 381 open joystick;
#X connect 0 0 1 0;
#X connect 1 0 5 0;
#X connect 2 0 3 0;
#X connect 3 0 5 0;
#X connect 4 0 8 0;
#X connect 6 0 7 0;
#X connect 7 0 5 0;
#X connect 8 0 5 0;
#X connect 9 0 10 0;
#X connect 10 0 5 0;
#X connect 11 0 12 0;
#X connect 12 0 5 0;
#X connect 13 0 14 0;
#X connect 14 0 5 0;
#X connect 16 0 5 0;
#X connect 17 0 5 0;
#X restore 203 59 pd open by device type;
#N canvas 796 51 470 320 open 0;
#X text 217 82 Gravis/Destroyer Tiltpad;
#X msg 76 81 open 0x047D 0x4008;
#X msg 73 53 open 0x046d 0xc01d;
#X text 211 53 Logitech USB-PS/2 Optical Mouse;
#X obj 10 277 outlet;
#X text 9 12 You can use the hex values of the USB vendor and product
IDs (it is not case sensitive):;
#X text 221 111 Overtone CUI v1.0;
#X msg 80 110 open 0x1043 0x0015;
#X msg 83 136 open 0x06a3 0xff12;
#X text 221 134 Saitek Cyborgforce;
#X connect 1 0 4 0;
#X connect 2 0 4 0;
#X connect 7 0 4 0;
#X connect 8 0 4 0;
#X restore 174 37 pd open by vendor/product ID;
#N canvas 112 98 467 346 test 0;
#X obj 144 45 inlet;
#X obj 88 104 route DESKTOP;
#X obj 87 158 route DESKTOP57;
#X obj 70 207 bng 15 250 50 0 empty empty empty 0 -6 0 8 -262144 -1
-1;
#X floatatom 95 212 5 0 0 0 - - -;
#X obj 148 215 spigot;
#X obj 146 256 print test;
#X obj 189 192 tgl 15 0 empty empty empty 0 -6 0 8 -262144 -1 -1 0
1;
#X obj 292 122 spigot;
#X obj 290 163 print test;
#X obj 333 99 tgl 15 0 empty empty empty 0 -6 0 8 -262144 -1 -1 0 1
;
#X connect 0 0 1 0;
#X connect 0 0 8 0;
#X connect 1 0 2 0;
#X connect 2 0 3 0;
#X connect 2 0 4 0;
#X connect 2 0 5 0;
#X connect 5 0 6 0;
#X connect 7 0 5 1;
#X connect 8 0 9 0;
#X connect 10 0 8 1;
#X restore 304 278 pd test;
#X msg 504 201 poll 200;
#N canvas 502 258 494 344 META 0;
#X text 12 145 HELP_PATCH_AUTHORS "pd meta" information added by Jonathan
Wilkes for Pd version 0.42.;
#X text 12 25 LICENSE GPL;
#X text 12 125 AUTHOR Hans-Christoph Steiner;
#X text 12 65 INLET_0;
#X text 12 85 OUTLET_0;
#X text 12 105 OUTLET_1;
#X text 12 5 KEYWORDS control user_input;
#X text 12 45 DESCRIPTION;
#X restore 659 574 pd META;
#X floatatom 580 425 5 0 0 0 - - -;
#X obj 276 360 route abs_x abs_y abs_z abs_rudder abs_rx abs_ry abs_rz
abs_throttle;
#X text 409 423 y2;
#X text 528 463 x2;
#X text 586 445 z2;
#X text 319 430 z1;
#X text 365 418 y1;
#X text 275 422 x1;
#X text 358 444 min 65;
#X text 587 459 min 100;
#X msg 436 201 poll 10;
#X obj 175 552 outlet;
#X obj 251 551 outlet;
#X obj 328 553 outlet;
#X obj 404 552 outlet;
#X obj 483 554 outlet;
#X obj 559 553 outlet;
#X obj 42 116 inlet;
#X obj 42 159 delay 1000;
#X obj 46 622 tgl 25 0 empty empty empty 0 -6 0 8 -195568 -1 -1 0 1
;
#X obj 76 622 tgl 25 0 empty empty empty 0 -6 0 8 -195568 -1 -1 0 1
;
#X obj 106 622 tgl 25 0 empty empty empty 0 -6 0 8 -195568 -1 -1 0
1;
#X obj 136 622 tgl 25 0 empty empty empty 0 -6 0 8 -195568 -1 -1 0
1;
#X obj 166 622 tgl 25 0 empty empty empty 0 -6 0 8 -195568 -1 -1 0
1;
#X obj 196 622 tgl 25 0 empty empty empty 0 -6 0 8 -195568 -1 -1 0
1;
#X obj 226 622 tgl 25 0 empty empty empty 0 -6 0 8 -195568 -1 -1 0
1;
#X obj 256 622 tgl 25 0 empty empty empty 0 -6 0 8 -195568 -1 -1 0
1;
#X obj 286 622 tgl 25 0 empty empty empty 0 -6 0 8 -195568 -1 -1 0
1;
#X obj 316 622 tgl 25 0 empty empty empty 0 -6 0 8 -195568 -1 -1 0
1;
#X obj 346 622 tgl 25 0 empty empty empty 0 -6 0 8 -195568 -1 -1 0
1;
#X obj 376 622 tgl 25 0 empty empty empty 0 -6 0 8 -195568 -1 -1 0
1;
#X obj 406 622 tgl 25 0 empty empty empty 0 -6 0 8 -195568 -1 -1 0
1;
#X obj 436 622 tgl 25 0 empty empty empty 0 -6 0 8 -195568 -1 -1 0
1;
#X obj 46 580 route btn_0 btn_1 btn_2 btn_3 btn_4 btn_5 btn_6 btn_7
btn_8 btn_9 btn_10 btn_11 btn_12 btn_13 btn_14 btn_15;
#X obj 466 622 tgl 25 0 empty empty empty 0 -6 0 8 -195568 -1 -1 0
1;
#X obj 496 622 tgl 25 0 empty empty empty 0 -6 0 8 -195568 -1 -1 0
1;
#X obj 654 676 outlet;
#X msg 262 114 open 19;
#X connect 0 0 38 0;
#X connect 2 0 13 0;
#X connect 3 0 13 0;
#X connect 5 0 13 0;
#X connect 8 0 60 0;
#X connect 8 2 28 0;
#X connect 12 0 13 0;
#X connect 13 0 8 0;
#X connect 13 0 24 0;
#X connect 13 1 21 0;
#X connect 16 0 40 0;
#X connect 17 0 39 0;
#X connect 18 0 41 0;
#X connect 19 0 42 0;
#X connect 20 0 13 0;
#X connect 22 0 13 0;
#X connect 23 0 13 0;
#X connect 25 0 13 0;
#X connect 27 0 43 0;
#X connect 28 0 0 0;
#X connect 28 1 16 0;
#X connect 28 2 17 0;
#X connect 28 3 18 0;
#X connect 28 6 19 0;
#X connect 28 7 27 0;
#X connect 37 0 13 0;
#X connect 44 0 64 0;
#X connect 44 0 45 0;
#X connect 45 0 5 0;
#X connect 48 0 63 0;
#X connect 60 0 46 0;
#X connect 60 1 47 0;
#X connect 60 2 48 0;
#X connect 60 3 49 0;
#X connect 60 4 50 0;
#X connect 60 5 51 0;
#X connect 60 6 52 0;
#X connect 60 7 53 0;
#X connect 60 8 54 0;
#X connect 60 9 55 0;
#X connect 60 10 56 0;
#X connect 60 11 57 0;
#X connect 60 12 58 0;
#X connect 60 13 59 0;
#X connect 60 14 61 0;
#X connect 60 15 62 0;
#X connect 64 0 13 0;
